<svg xmlns="http://www.w3.org/2000/svg" width="146" height="44" viewBox="0 0 146 44" fill="none"><path d="M9.7128 18.5121C8.86464 18.1083 8.16824 17.8726 7.30585 17.7801C5.71626 17.6096 3.90155 17.917 2.96171 19.2102V19.2102C2.18072 20.2849 2.20082 21.719 2.20082 23.0475V24.9908H0.5V28.7935H2.20082V42.7368H6.73636V28.7935H9.7128V24.9908H6.73636V24.1925C6.73636 22.8737 7.29901 21.2927 8.57892 21.6106V21.6106C9.14586 21.7515 9.7128 22.174 9.7128 22.174V18.5121Z" fill="white"></path><path d="M12.6892 24.9908V42.7368H17.083V33.1596C17.083 30.7653 17.9069 28.9685 19.2091 28.5118C19.8758 28.4542 20.2273 28.4863 20.7682 28.7935L22.469 24.9908C20.6853 24.562 19.44 24.3541 17.9335 25.5542C17.5156 25.887 17.1479 26.6856 16.6578 27.2442V24.9908H12.6892Z" fill="white"></path><path fill-rule="evenodd" clip-rule="evenodd" d="M43.871 24.9908V42.7368H39.3355V41.0467C39.0294 41.3835 38.7242 41.6637 38.4018 41.9005C35.8827 43.7504 32.1539 43.522 29.4642 41.9304C29.2768 41.8195 29.0957 41.7001 28.9199 41.5708C26.7958 40.0088 25.9189 37.2341 25.7681 34.6018C25.7413 34.133 25.7413 33.6692 25.7723 33.1988C26.0171 29.4859 28.3195 25.5413 31.9789 24.8677C32.4579 24.7796 32.9621 24.7362 33.5243 24.7091C36.5946 24.7082 37.5898 25.5786 39.3355 26.9626V24.9908H43.871ZM30.0096 32.6951C29.6484 34.8399 30.385 37.2984 32.2011 38.4952C32.91 38.9624 33.6887 39.121 34.6455 39.0705C35.8914 39.0048 37.1735 38.6817 38.1506 37.9058C38.337 37.7578 38.4984 37.5899 38.6369 37.3848C39.1284 36.6572 39.4772 35.5539 39.4772 34.0046C39.4772 32.7371 39.2859 31.6642 38.5271 30.6245V30.6245C37.8897 29.751 36.8736 29.1948 35.8305 28.9097C35.0786 28.7041 34.439 28.6821 33.8193 28.8089C32.0816 29.1644 30.5683 30.5302 30.1079 32.2431C30.0675 32.3933 30.0351 32.5436 30.0096 32.6951Z" fill="white"></path><path d="M50.1074 18.2304V42.7368H54.5012V34.8497L62.0132 42.7368H67.8243L59.1785 33.5821L66.6904 24.9908H61.021L54.5012 32.0329V18.2304H50.1074Z" fill="white"></path><path d="M71.7929 42.7368H76.1867V28.9344H79.0214V24.9908H76.1867V18.5121H71.7929V24.9908H69.3834V28.9344H71.7929V42.7368Z" fill="white"></path><path fill-rule="evenodd" clip-rule="evenodd" d="M100.565 24.9908V42.7368H96.0297V41.0467C95.7235 41.3835 95.4183 41.6637 95.0959 41.9005C92.5769 43.7504 88.8481 43.522 86.1583 41.9304C85.8955 41.7749 85.6451 41.6026 85.4044 41.41C83.4818 39.8715 82.6376 37.3279 82.4445 34.873C82.4 34.3077 82.3955 33.7503 82.4379 33.1805C82.7136 29.4772 85.0108 25.5477 88.6619 24.8698C89.1443 24.7802 89.6519 24.7364 90.2185 24.7091C93.2887 24.7082 94.284 25.5786 96.0297 26.9626V24.9908H100.565ZM86.7037 32.6951C86.3426 34.8399 87.0791 37.2984 88.8952 38.4952C89.6042 38.9624 90.3829 39.121 91.3396 39.0705C92.5855 39.0048 93.8677 38.6817 94.8448 37.9058C95.0311 37.7578 95.1926 37.5899 95.3311 37.3848C95.8225 36.6572 96.1714 35.5539 96.1714 34.0046C96.1714 32.7371 95.9801 31.6642 95.2213 30.6245V30.6245C94.5838 29.751 93.5677 29.1948 92.5247 28.9097C91.7727 28.7041 91.1331 28.6821 90.5134 28.8089C88.7757 29.1644 87.2625 30.5302 86.8021 32.2431C86.7617 32.3933 86.7292 32.5436 86.7037 32.6951Z" fill="white"></path><path d="M106.235 42.7368H110.912V18.2304H106.235V42.7368Z" fill="white"></path><path d="M9.7128 18.5121C8.86464 18.1083 8.16824 17.8726 7.30585 17.7801C5.71626 17.6096 3.90155 17.917 2.96171 19.2102V19.2102C2.18072 20.2849 2.20082 21.719 2.20082 23.0475V24.9908H0.5V28.7935H2.20082V42.7368H6.73636V28.7935H9.7128V24.9908H6.73636V24.1925C6.73636 22.8737 7.29901 21.2927 8.57892 21.6106V21.6106C9.14586 21.7515 9.7128 22.174 9.7128 22.174V18.5121Z" stroke="white" stroke-width="0.686321"></path><path d="M12.6892 24.9908V42.7368H17.083V33.1596C17.083 30.7653 17.9069 28.9685 19.2091 28.5118C19.8758 28.4542 20.2273 28.4863 20.7682 28.7935L22.469 24.9908C20.6853 24.562 19.44 24.3541 17.9335 25.5542C17.5156 25.887 17.1479 26.6856 16.6578 27.2442V24.9908H12.6892Z" stroke="white" stroke-width="0.686321"></path><path fill-rule="evenodd" clip-rule="evenodd" d="M43.871 24.9908V42.7368H39.3355V41.0467C39.0294 41.3835 38.7242 41.6637 38.4018 41.9005C35.8827 43.7504 32.1539 43.522 29.4642 41.9304C29.2768 41.8195 29.0957 41.7001 28.9199 41.5708C26.7958 40.0088 25.9189 37.2341 25.7681 34.6018C25.7413 34.133 25.7413 33.6692 25.7723 33.1988C26.0171 29.4859 28.3195 25.5413 31.9789 24.8677C32.4579 24.7796 32.9621 24.7362 33.5243 24.7091C36.5946 24.7082 37.5898 25.5786 39.3355 26.9626V24.9908H43.871ZM30.0096 32.6951C29.6484 34.8399 30.385 37.2984 32.2011 38.4952C32.91 38.9624 33.6887 39.121 34.6455 39.0705C35.8914 39.0048 37.1735 38.6817 38.1506 37.9058C38.337 37.7578 38.4984 37.5899 38.6369 37.3848C39.1284 36.6572 39.4772 35.5539 39.4772 34.0046C39.4772 32.7371 39.2859 31.6642 38.5271 30.6245V30.6245C37.8897 29.751 36.8736 29.1948 35.8305 28.9097C35.0786 28.7041 34.439 28.6821 33.8193 28.8089C32.0816 29.1644 30.5683 30.5302 30.1079 32.2431C30.0675 32.3933 30.0351 32.5436 30.0096 32.6951Z" stroke="white" stroke-width="0.686321"></path><path d="M50.1074 18.2304V42.7368H54.5012V34.8497L62.0132 42.7368H67.8243L59.1785 33.5821L66.6904 24.9908H61.021L54.5012 32.0329V18.2304H50.1074Z" stroke="white" stroke-width="0.686321"></path><path d="M71.7929 42.7368H76.1867V28.9344H79.0214V24.9908H76.1867V18.5121H71.7929V24.9908H69.3834V28.9344H71.7929V42.7368Z" stroke="white" stroke-width="0.686321"></path><path fill-rule="evenodd" clip-rule="evenodd" d="M100.565 24.9908V42.7368H96.0297V41.0467C95.7235 41.3835 95.4183 41.6637 95.0959 41.9005C92.5769 43.7504 88.8481 43.522 86.1583 41.9304C85.8955 41.7749 85.6451 41.6026 85.4044 41.41C83.4818 39.8715 82.6376 37.3279 82.4445 34.873C82.4 34.3077 82.3955 33.7503 82.4379 33.1805C82.7136 29.4772 85.0108 25.5477 88.6619 24.8698C89.1443 24.7802 89.6519 24.7364 90.2185 24.7091C93.2887 24.7082 94.284 25.5786 96.0297 26.9626V24.9908H100.565ZM86.7037 32.6951C86.3426 34.8399 87.0791 37.2984 88.8952 38.4952C89.6042 38.9624 90.3829 39.121 91.3396 39.0705C92.5855 39.0048 93.8677 38.6817 94.8448 37.9058C95.0311 37.7578 95.1926 37.5899 95.3311 37.3848C95.8225 36.6572 96.1714 35.5539 96.1714 34.0046C96.1714 32.7371 95.9801 31.6642 95.2213 30.6245V30.6245C94.5838 29.751 93.5677 29.1948 92.5247 28.9097C91.7727 28.7041 91.1331 28.6821 90.5134 28.8089C88.7757 29.1644 87.2625 30.5302 86.8021 32.2431C86.7617 32.3933 86.7292 32.5436 86.7037 32.6951Z" stroke="white" stroke-width="0.686321"></path><path d="M106.235 42.7368H110.912V18.2304H106.235V42.7368Z" stroke="white" stroke-width="0.686321"></path><path d="M122.832 12.5088C119.98 14.0081 117.842 16.5269 116.871 19.5312C115.899 22.5356 116.171 25.7892 117.628 28.6024C119.085 31.4156 121.613 33.5672 124.676 34.601C127.739 35.6348 131.096 35.4697 134.035 34.1405L132.035 29.9684C130.212 30.7926 128.131 30.895 126.232 30.254C124.332 29.6129 122.765 28.2789 121.862 26.5346C120.958 24.7902 120.79 22.7728 121.392 20.91C121.995 19.0472 123.32 17.4854 125.088 16.5558L122.832 12.5088Z" fill="#99CCFF"></path><path d="M123.104 21.9378C125.893 23.5488 129.176 24.0189 132.255 23.2484C135.335 22.4779 137.969 20.5274 139.601 17.8104C141.232 15.0933 141.732 11.8234 140.994 8.69372C140.256 5.56406 138.339 2.82076 135.648 1.04539L133.144 4.93959C134.812 6.04041 136.001 7.74138 136.459 9.68191C136.916 11.6224 136.606 13.65 135.595 15.3347C134.583 17.0194 132.95 18.2288 131.04 18.7065C129.131 19.1843 127.096 18.8928 125.366 17.8938L123.104 21.9378Z" fill="#00CCCC"></path><path d="M130.737 16.2767C130.705 13.0711 129.434 10.0275 127.193 7.79109C124.953 5.55471 121.919 4.30137 118.735 4.29677C115.551 4.29217 112.467 5.53668 110.137 7.76646C107.808 9.99624 106.415 13.036 106.254 16.2413L110.902 16.3897C111.002 14.4023 111.866 12.5175 113.31 11.1349C114.755 9.75238 116.667 8.98073 118.641 8.98358C120.616 8.98643 122.497 9.76356 123.886 11.1502C125.275 12.5369 126.063 14.4241 126.083 16.4117L130.737 16.2767Z" fill="#145A9A"></path></svg>